<?xml version="1.0" standalone="no"?><!DOCTYPE svg PUBLIC "-//W3C//DTD SVG 1.1//EN" "http://www.w3.org/Graphics/SVG/1.1/DTD/svg11.dtd"><svg t="1702744528627" class="icon" viewBox="0 0 1024 1024" version="1.1" xmlns="http://www.w3.org/2000/svg" p-id="4251" width="16" height="16" xmlns:xlink="http://www.w3.org/1999/xlink"><path d="M210.560251 0.000427A210.090492 210.090492 0 0 0 0.000427 210.560251v602.879498A210.090492 210.090492 0 0 0 210.560251 1023.999573h602.879498A210.090492 210.090492 0 0 0 1023.999573 813.439749V210.560251A210.090492 210.090492 0 0 0 813.439749 0.000427z m333.226389 194.005171c93.055922 0 173.141189 28.842643 230.357142 78.805268a261.034449 261.034449 0 0 1 90.282591 198.826501c0.213333 79.103934-37.546635 148.30921-96.298586 194.687838-58.666618 46.591961-137.599885 72.405273-224.341147 72.405273-98.730584 0-190.293175-35.925303-190.293175-35.925304v115.967904c16.938653 4.949329 44.714629 15.57332 27.093311 33.237305H247.040221c-17.493319-17.493319 8.10666-27.73331 27.47731-33.237305V327.082821c-44.927963 34.559971-67.967943 64.426613-79.701267 86.655928 13.653322 43.519964-12.117323 41.343966-12.117323 41.343965l-46.506628-73.813272s165.034529-187.306511 407.594327-187.30651z m-8.10666 41.429299c-60.714616-0.128-135.850553 20.181317-182.186515 53.077289v368.895693c42.154632 20.778649 105.983912 35.498637 181.759849 35.498637h0.426666c68.095943 0 127.146561-25.301312 167.679861-65.407946 40.618633-40.447966 63.402614-93.141256 63.658613-157.141202-0.213333-65.706612-21.503982-122.197232-60.586616-164.693196-39.167967-42.325298-97.023919-70.186608-170.751858-70.229275z" fill="#0096FA" p-id="4252"></path></svg>