<?xml version="1.0" standalone="no"?><!DOCTYPE svg PUBLIC "-//W3C//DTD SVG 1.1//EN" "http://www.w3.org/Graphics/SVG/1.1/DTD/svg11.dtd">
<svg t="1586600809752" class="icon" viewBox="0 0 1222 1024" version="1.1" 
  xmlns="http://www.w3.org/2000/svg" p-id="5234" 
  xmlns:xlink="http://www.w3.org/1999/xlink" width="238.671875" height="200">
  <defs>
    <style type="text/css"></style>
  </defs>
  <path d="M442.263138 623.461304L788.057265 279.956343c-94.855893-95.488939-249.161106-96.000976-344.650044-1.145083s-95.999976 249.161106-1.144083 344.650044zM546.459709 300.566841a70.705138 70.705138 0 1 1-50.303655 21.011527 70.705138 70.705138 0 0 1 50.303655-21.011527z m36.353642 389.4493a238.750349 238.750349 0 0 0 28.62508 1.861135c134.909803 0.079006 244.317754-109.26494 244.317753-244.174743a253.635431 253.635431 0 0 0-1.717124-27.767018z" p-id="5235" fill="#fff"></path>
  <path d="M282.675541 782.332849l65.695774-65.404753a801.514243 801.514243 0 0 1-94.034833-71.5632 779.467641 779.467641 0 0 1-133.109673-149.9969 81.725939 81.725939 0 0 1 1.000073-91.315635A867.207016 867.207016 0 0 1 257.628721 252.618357c81.005886-73.280325 208.822174-160.445659 353.95372-160.445659 101.620384 0 194.939165 42.93812 270.080626 93.891823l65.838784-65.555764C850.74782 51.811765 735.100417 0 611.582441 0 276.520094 0 0 380.427644 0 447.701533c0 54.101931 114.50132 220.702038 282.675541 334.631316z m777.321485-567.641248l-64.836712 64.55069a854.468091 854.468091 0 0 1 106.056707 124.95008 88.738448 88.738448 0 0 1 0 98.328145A714.49692 714.49692 0 0 1 973.264723 647.647062c-66.553836 58.109223-201.952675 155.722316-362.254323 155.722316a416.356255 416.356255 0 0 1-123.088945-19.465415l-71.5632 71.5632a518.549681 518.549681 0 0 0 194.514135 40.361933c329.191921 0 611.439431-341.357805 611.439431-447.701532 0.716052-32.34635-61.404462-134.539776-162.305795-233.439964z m96.036978-198.374415a51.811765 51.811765 0 0 0-73.138314 0L159.011555 935.621988a51.716758 51.716758 0 1 0 73.138314 73.138315L1155.753984 89.4545a51.382734 51.382734 0 0 0 15.171102-36.497652 50.666682 50.666682 0 0 0-14.885081-36.640662z" p-id="5236" fill="#fff"></path>
</svg>