<svg class="icon" viewBox="0 0 1024 1024" xmlns="http://www.w3.org/2000/svg" width="1024" height="1024"><path d="M0 512a512 512 0 1 0 1024 0A512 512 0 1 0 0 512z" fill="currentColor"/><path d="M292.571 789.943c-14.628 0-21.942-7.314-29.257-14.629-14.628-14.628-14.628-43.885 0-58.514L716.8 263.314c14.629-14.628 43.886-14.628 58.514 0s14.629 43.886 0 58.515L321.83 775.314c-7.315 7.315-21.943 14.629-29.258 14.629z"/><path d="M746.057 789.943c-14.628 0-21.943-7.314-29.257-14.629L256 321.83c-14.629-14.629-14.629-43.886 0-58.515 14.629-14.628 43.886-14.628 58.514 0L768 716.8c14.629 14.629 14.629 43.886 0 58.514 0 7.315-14.629 14.629-21.943 14.629z"/></svg>