<?xml version="1.0" standalone="no"?><!DOCTYPE svg PUBLIC "-//W3C//DTD SVG 1.1//EN" "http://www.w3.org/Graphics/SVG/1.1/DTD/svg11.dtd">
<svg t="1586030920144" class="icon" viewBox="0 0 1024 1024" version="1.1" 
  xmlns="http://www.w3.org/2000/svg" p-id="2887" 
  xmlns:xlink="http://www.w3.org/1999/xlink" width="200" height="200">
  <defs>
    <style type="text/css"></style>
  </defs>
  <path d="M369.067 640c-4.267 0-10.667-2.133-14.934-4.267C339.2 627.2 332.8 608 341.333 593.067L471.467 358.4c14.933-19.2 36.266-29.867 59.733-29.867s46.933 10.667 61.867 27.734l2.133 4.266L723.2 576c8.533 14.933 4.267 34.133-10.667 44.8-14.933 8.533-34.133 4.267-44.8-10.667L541.867 396.8c-4.267-2.133-8.534-4.267-10.667-4.267-2.133 0-6.4 0-10.667 4.267L394.667 625.067C390.4 633.6 379.733 640 369.067 640z" fill="#FFBB12" p-id="2888"></path>
  <path d="M716.8 855.467H322.133c-53.333 0-102.4-34.134-119.466-83.2l-108.8-300.8c-6.4-19.2 0-40.534 14.933-51.2 17.067-12.8 38.4-12.8 53.333 0l275.2 198.4c10.667 8.533 23.467 12.8 36.267 12.8h98.133c14.934 0 27.734-4.267 38.4-12.8l268.8-209.067c17.067-12.8 38.4-12.8 55.467 0s23.467 34.133 14.933 53.333L834.133 774.4c-17.066 46.933-64 81.067-117.333 81.067zM174.933 507.733l87.467 243.2c8.533 25.6 32 42.667 59.733 42.667h392.534c25.6 0 51.2-17.067 59.733-40.533l91.733-251.734-217.6 168.534C627.2 686.933 599.467 697.6 569.6 697.6h-98.133c-27.734 0-53.334-8.533-74.667-23.467l-221.867-166.4z" fill="#543E3E" p-id="2889"></path>
  <path d="M59.733 341.333a42.667 42.667 0 1 0 85.334 0 42.667 42.667 0 1 0-85.334 0zM488.533 249.6a42.667 42.667 0 1 0 85.334 0 42.667 42.667 0 1 0-85.334 0zM900.267 322.133a42.667 42.667 0 1 0 85.333 0 42.667 42.667 0 1 0-85.333 0z" fill="#FFBB12" p-id="2890"></path>
</svg>