<?xml version="1.0" standalone="no"?><!DOCTYPE svg PUBLIC "-//W3C//DTD SVG 1.1//EN" "http://www.w3.org/Graphics/SVG/1.1/DTD/svg11.dtd">
<svg t="1586028467227" class="icon" viewBox="0 0 1024 1024" version="1.1" 
  xmlns="http://www.w3.org/2000/svg" p-id="832" 
  xmlns:xlink="http://www.w3.org/1999/xlink" width="200" height="200">
  <defs>
    <style type="text/css"></style>
  </defs>
  <path d="M512 683.3c-15.5 0-28.1-12.6-28.1-28.1V473.1c0-15.5 12.6-28.1 28.1-28.1s28.1 12.6 28.1 28.1v182.1c0 15.5-12.6 28.1-28.1 28.1z" fill="#FFB612" p-id="833"></path>
  <path d="M511 770.9c-6.5 0-12.9-2.2-18.2-6.7L371.1 661.1c-11.8-10-13.3-27.8-3.3-39.6s27.8-13.3 39.6-3.3L511.1 706l105.6-88c11.9-9.9 29.7-8.3 39.6 3.6 9.9 11.9 8.3 29.7-3.6 39.6L529 764.4c-5.2 4.3-11.6 6.5-18 6.5z" fill="#FFB612" p-id="834"></path>
  <path d="M736.9 840H632c-15.5 0-28.1-12.6-28.1-28.1s12.6-28.1 28.1-28.1h105c92 0 166.8-74.8 166.8-166.8 0-87.4-68.4-160.5-155.7-166.2-13.5-0.9-24.4-11.2-26-24.6-13-106-103.3-185.9-210.1-185.9s-197.1 79.9-210.1 185.9c-1.6 13.4-12.6 23.8-26 24.6-87.3 5.8-155.7 78.8-155.7 166.2 0 92 74.8 166.8 166.8 166.8h105c15.5 0 28.1 12.6 28.1 28.1S407.6 840 392 840H287c-59.6 0-115.6-23.2-157.7-65.3C87.2 732.6 64 676.6 64 617c0-57 21.5-111.2 60.5-152.6 33.6-35.7 77.4-59.1 125.2-67.1C275.3 274.2 384.3 184 512 184c127.7 0 236.7 90.2 262.3 213.3 47.8 8 91.6 31.4 125.2 67.1C938.5 505.8 960 560 960 617c0 59.6-23.2 115.6-65.3 157.7-42.2 42.1-98.2 65.3-157.8 65.3z" fill="#593A25" p-id="835"></path>
</svg>