<?xml version="1.0" standalone="no"?><!DOCTYPE svg PUBLIC "-//W3C//DTD SVG 1.1//EN" "http://www.w3.org/Graphics/SVG/1.1/DTD/svg11.dtd">
<svg t="1586106077547" class="icon" viewBox="0 0 1024 1024" version="1.1" 
  xmlns="http://www.w3.org/2000/svg" p-id="3872" 
  xmlns:xlink="http://www.w3.org/1999/xlink" width="200" height="200">
  <defs>
    <style type="text/css"></style>
  </defs>
  <path d="M512 981.333333c259.2 0 469.333333-210.133333 469.333333-469.333333S771.2 42.666667 512 42.666667 42.666667 252.8 42.666667 512s210.133333 469.333333 469.333333 469.333333z m0 42.666667C229.226667 1024 0 794.773333 0 512S229.226667 0 512 0s512 229.226667 512 512-229.226667 512-512 512z" p-id="3873" fill="#fafafa"></path>
  <path d="M706.88 724.266667a21.333333 21.333333 0 1 1-31.616 28.629333A212.992 212.992 0 0 0 516.736 682.666667a213.44 213.44 0 0 0-126.890667 41.6 21.333333 21.333333 0 0 1-25.322666-34.325334A256.085333 256.085333 0 0 1 516.714667 640a255.637333 255.637333 0 0 1 190.165333 84.266667zM330.346667 424.533333l-60.330667 60.330667a21.333333 21.333333 0 0 1-30.165333-30.165333l60.330666-60.352-60.330666-60.330667a21.333333 21.333333 0 0 1 30.165333-30.165333l60.330667 60.330666 60.352-60.330666a21.333333 21.333333 0 1 1 30.165333 30.165333l-60.352 60.330667 60.352 60.352a21.333333 21.333333 0 1 1-30.165333 30.165333l-60.352-60.352zM693.013333 424.533333l-60.330666 60.330667a21.333333 21.333333 0 0 1-30.165334-30.165333l60.330667-60.352-60.330667-60.330667a21.333333 21.333333 0 1 1 30.165334-30.165333l60.330666 60.330666 60.352-60.330666a21.333333 21.333333 0 1 1 30.165334 30.165333l-60.352 60.330667 60.352 60.352a21.333333 21.333333 0 1 1-30.165334 30.165333l-60.352-60.352z" p-id="3874" fill="#fafafa"></path>
</svg>