<?xml version="1.0" standalone="no"?><!DOCTYPE svg PUBLIC "-//W3C//DTD SVG 1.1//EN" "http://www.w3.org/Graphics/SVG/1.1/DTD/svg11.dtd">
<svg t="1586067303872" class="icon" viewBox="0 0 1024 1024" version="1.1" 
  xmlns="http://www.w3.org/2000/svg" p-id="989" 
  xmlns:xlink="http://www.w3.org/1999/xlink" width="200" height="200">
  <defs>
    <style type="text/css"></style>
  </defs>
  <path d="M801.54 479.633c-5.661 0-11.09-2.377-15.093-6.606-4.002-4.231-6.251-9.968-6.251-15.95a234.301 234.301 0 0 0-6.189-59.773c-6.649-33.101-23.184-63.07-47.17-85.486-8.958-8.097-10.011-22.337-2.348-31.804 7.662-9.468 21.137-10.579 30.095-2.481 30.573 28.427 51.739 66.443 60.403 108.493a283.252 283.252 0 0 1 7.258 71.727c-0.336 11.935-9.412 21.528-20.705 21.88z" fill="#f2c358" p-id="990"></path>
  <path d="M513.396 921.727c-8.22-0.069-16.293-2.317-23.478-6.542a604.811 604.811 0 0 1-61.897-41.503c-67.143-49.991-129.802-106.393-187.187-168.491-39.941-41.963-74.786-89.015-103.731-140.072-17.728-30.615-30.226-64.284-36.926-99.471a270.409 270.409 0 0 1-1.707-67.667c2.649-40.67 12.496-80.455 29.028-117.291 27.404-65.27 79.79-115.135 144.072-137.139 89.58-30.772 187.675 3.812 241.827 85.261l2.774-3.609c35.685-49.918 88.959-82.46 147.7-90.223 63.05-9.192 126.72 11.532 173.953 56.614 40.891 38.601 69.265 89.811 81.107 146.388a380.482 380.482 0 0 1 9.818 96.764c-1.35 35.234-9.79 69.76-24.759 101.275-21.589 46.639-49.171 89.904-81.961 128.568-71.546 86.618-153.823 162.639-244.602 226.009a378.442 378.442 0 0 1-41.407 25.263c-7.004 3.798-14.753 5.806-22.624 5.866zM337.522 199.941a146.568 146.568 0 0 0-47.17 7.894c-47.8 16.042-86.708 53.13-106.72 101.727-12.545 29.454-19.783 61.122-21.344 93.381a206.06 206.06 0 0 0 0 50.299c5.914 27.659 16.391 54 30.949 77.817 26.366 46.215 58.055 88.795 94.341 126.764 54.781 59.122 114.581 112.804 178.648 160.372a581.769 581.769 0 0 0 47.17 33.608 311.036 311.036 0 0 0 27.961-17.593c86.235-59.892 164.421-131.819 232.435-213.83 28.964-33.902 53.383-71.851 72.569-112.779 11.279-23.03 17.824-48.319 19.21-74.209a309.145 309.145 0 0 0-8.111-78.494c-8.616-43.354-30.161-82.647-61.471-112.103-33.409-32.319-78.72-47.205-123.581-40.601-42.179 5.521-80.369 29.083-105.652 65.186-9.622 12.984-17.855 27.055-24.545 41.954-5.275 11.411-16.152 18.74-28.168 18.977-12.015 0.238-23.145-6.655-28.821-17.85-5.675-11.195-14.087-28.195-21.344-39.021-28.225-44.236-75.233-70.972-125.716-71.502h-0.64v0.003z" fill="#433d3f" p-id="991"></path>
</svg>