<?xml version="1.0" standalone="no"?><!DOCTYPE svg PUBLIC "-//W3C//DTD SVG 1.1//EN" "http://www.w3.org/Graphics/SVG/1.1/DTD/svg11.dtd">
<svg t="1586028475199" class="icon" viewBox="0 0 1024 1024" version="1.1" 
  xmlns="http://www.w3.org/2000/svg" p-id="1078" 
  xmlns:xlink="http://www.w3.org/1999/xlink" width="200" height="200">
  <path d="M783.4 877.1H259.2c-57.1 0-103.6-48.3-103.6-107.6v-330c0-34 15.7-66.4 42-86.6l218.9-168.1c30.4-23.4 66.6-35.7 104.8-35.7 38.1 0 74.4 12.3 104.8 35.7L845 352.9c26.3 20.2 42 52.6 42 86.6v330c0 59.3-46.5 107.6-103.6 107.6z m-262.1-688c-29.2 0-57.1 9.5-80.4 27.4L222 384.6c-16.5 12.7-26.4 33.2-26.4 54.8v330c0 37.3 28.5 67.6 63.6 67.6h524.3c35.1 0 63.6-30.3 63.6-67.6v-330c0-21.7-9.9-42.2-26.4-54.8l-219-168.1c-23.4-17.9-51.2-27.4-80.4-27.4z" fill="#353032" p-id="1079"></path>
  <path d="M644.6 857.1H398V720.7c0-42.5 34.5-77 77-77h92.6c42.5 0 77 34.5 77 77v136.4z" fill="#F2C358" p-id="1080"></path>
  <path d="M644.6 877.1H398c-11 0-20-9-20-20V720.7c0-53.5 43.5-97 97-97h92.6c53.5 0 97 43.5 97 97v136.4c0 11.1-9 20-20 20z m-226.6-40h206.6V720.7c0-31.4-25.6-57-57-57H475c-31.4 0-57 25.6-57 57v116.4z" fill="#353032" p-id="1081"></path>
  <path d="M765.9 880.7H241.7c-57.1 0-103.6-48.3-103.6-107.6v-330c0-34 15.7-66.4 42-86.6L399 188.4c30.4-23.4 66.6-35.7 104.8-35.7 38.1 0 74.4 12.3 104.8 35.7l218.9 168.1c26.3 20.2 42 52.6 42 86.6v330c0 59.4-46.4 107.6-103.6 107.6z m-262.1-688c-29.2 0-57.1 9.5-80.4 27.4L204.5 388.3c-16.5 12.7-26.4 33.2-26.4 54.8v330c0 37.3 28.5 67.6 63.6 67.6H766c35.1 0 63.6-30.3 63.6-67.6v-330c0-21.7-9.9-42.2-26.4-54.8l-219-168.1c-23.3-18-51.1-27.5-80.4-27.5z" fill="#353032" p-id="1082"></path>
  <path d="M627.1 860.7H380.5V724.3c0-42.5 34.5-77 77-77h92.6c42.5 0 77 34.5 77 77v136.4z" fill="currentColor" p-id="1083"></path>
  <path d="M627.1 880.7H380.5c-11 0-20-9-20-20V724.3c0-53.5 43.5-97 97-97h92.6c53.5 0 97 43.5 97 97v136.4c0 11.1-8.9 20-20 20z m-226.6-40h206.6V724.3c0-31.4-25.6-57-57-57h-92.6c-31.4 0-57 25.6-57 57v116.4z" fill="#353032" p-id="1084"></path>
</svg>