<?xml version="1.0" standalone="no"?>
<!DOCTYPE svg PUBLIC "-//W3C//DTD SVG 1.1//EN" "http://www.w3.org/Graphics/SVG/1.1/DTD/svg11.dtd">
<svg t="1587279495852" class="icon" viewBox="0 0 1024 1024" version="1.1" xmlns="http://www.w3.org/2000/svg" p-id="28960" xmlns:xlink="http://www.w3.org/1999/xlink" width="1024" height="1024">
    <defs>
        <style type="text/css"/>
    </defs>
    <path d="M576.8 354.6c0 52.3 42.4 94.6 94.6 94.6 52.3 0 94.6-42.4 94.6-94.6 0-33.8-18-65-47.3-81.9a94.594 94.594 0 0 0-94.6 0c-29.2 16.8-47.3 48.1-47.3 81.9z m0 0" fill="#f2c358" p-id="28961" data-spm-anchor-id="a313x.7781069.0.i13" class=""/>
    <path d="M893.1 72.1H135.5C66.1 72.1 9.2 129 9.2 198.4v631.5c0 69.4 56.9 126.3 126.3 126.3h757.6c69.4 0 126.3-56.9 126.3-126.3V198.4c0-69.4-56.9-126.3-126.3-126.3z m63.1 684.2L804.6 562.2c-19-31.7-56.7-31.7-82-6.4L546 733 363 499c-18.9-25.3-50.5-25.3-75.7 0L72.4 758.7V198.4c0-37.9 25.3-63.1 63.1-63.1h757.6c31.5 0 63.1 31.5 63.1 63.1v557.9z m0 0" fill="#999999" p-id="28962"/>
</svg>
