<?xml version="1.0" standalone="no"?><!DOCTYPE svg PUBLIC "-//W3C//DTD SVG 1.1//EN" "http://www.w3.org/Graphics/SVG/1.1/DTD/svg11.dtd">
<svg t="1586064803573" class="icon" viewBox="0 0 1024 1024" version="1.1" 
  xmlns="http://www.w3.org/2000/svg" p-id="2798" 
  xmlns:xlink="http://www.w3.org/1999/xlink" width="200" height="200">
  <defs>
    <style type="text/css"></style>
  </defs>
  <path d="M841.520969 497.448586c0 16.590863-13.45136 30.042223-30.042223 30.042223-14.176884 0-25.982768-9.852392-29.143761-23.058159l-0.093121 0.023536c-3.361561-12.918217-14.999622-22.49841-28.969798-22.49841-16.591887 0-30.042223 13.45136-30.042223 30.042223 0 13.920034 9.514701 25.514093 22.358217 28.925796l-0.060375 0.228197c13.054317 3.267417 22.76447 14.985296 22.76447 29.05371 0 16.590863-13.449313 30.040177-30.042223 30.040177-2.822278 0-5.499248-0.5137-8.089235-1.242294l-0.004093 0.016373c-38.554084-10.219759-67.011206-45.251623-67.011206-87.021959 0-49.774637 40.35101-90.125647 90.125647-90.125647 41.921785 0 77.05598 28.665877 87.13043 67.434855l-0.128937 0.034792C841.004199 491.938082 841.520969 494.620168 841.520969 497.448586zM512.938372 602.125647c-49.774637 0-90.1236-40.35101-90.1236-90.125647s40.348963-90.125647 90.1236-90.125647 90.125647 40.35101 90.125647 90.125647S562.713009 602.125647 512.938372 602.125647zM512.938372 481.957777c-16.590863 0-30.042223 13.45136-30.042223 30.042223 0 16.591887 13.45136 30.042223 30.042223 30.042223 16.591887 0 30.042223-13.449313 30.042223-30.042223C542.980595 495.409137 529.530258 481.957777 512.938372 481.957777zM272.603655 602.125647c-49.774637 0-90.125647-40.35101-90.125647-90.125647s40.35101-90.125647 90.125647-90.125647 90.125647 40.35101 90.125647 90.125647S322.379315 602.125647 272.603655 602.125647zM272.603655 481.957777c-16.591887 0-30.040177 13.45136-30.040177 30.042223 0 16.591887 13.44829 30.042223 30.040177 30.042223s30.042223-13.449313 30.042223-30.042223C302.645878 495.409137 289.196565 481.957777 272.603655 481.957777z" p-id="2799"></path>
</svg>