<svg class="icon" viewBox="0 0 1024 1024" width="200" height="200" xmlns="http://www.w3.org/2000/svg"><path d="M315.237 374.524V119.746l211.383 7.009-8.42 247.747-107.773-21.745-95.19 21.767z" fill="currentColor"/><path d="M709.781 803.698H315.607c-24.039 0-39.064-26.024-27.044-46.842a31.229 31.229 0 0 1 27.044-15.615h394.174c24.041 0 39.065 26.023 27.046 46.843a31.23 31.23 0 0 1-27.046 15.614M514.915 95.619H321.691c-21.35 0-38.7 13.023-38.7 29.1v257.254c0 16.679 18.182 29.124 38.677 29.124 4.627 0 9.299-.624 13.925-1.967l68.82-19.892a50.068 50.068 0 0 1 27.804 0l68.796 19.892a50.46 50.46 0 0 0 13.948 1.967c20.495 0 38.678-12.445 38.678-29.124V124.719c0-16.077-17.326-29.1-38.724-29.1m-23.734 62.457v183.208l-41.614-12.052a112.701 112.701 0 0 0-62.504 0l-41.615 12.052V158.076h145.733" fill="#353032"/><path d="M865.924 595.276V259.163c0-90.323-73.221-163.544-163.545-163.544H321.622c-90.324 0-163.546 73.221-163.546 163.544v505.674c0 90.323 73.222 163.544 163.546 163.544h380.757c90.324 0 163.545-73.221 163.545-163.544v-55.056c0-24.039-26.024-39.064-46.843-27.044a31.228 31.228 0 0 0-15.614 27.044v55.056c-.152 55.764-45.322 100.934-101.088 101.087H321.622c-55.766-.153-100.936-45.323-101.088-101.087V259.163c.152-55.766 45.322-100.934 101.088-101.087h380.757c55.766.153 100.936 45.321 101.088 101.087v336.113c0 24.041 26.023 39.066 46.843 27.045a31.226 31.226 0 0 0 15.614-27.045" fill="#353032"/></svg>