<svg t="1591033787505" class="icon" viewBox="0 0 1024 1024" version="1.1" p-id="10105" data-spm-anchor-id="a313x.7781069.0.i10" width="1024" height="1024" xmlns="http://www.w3.org/2000/svg">
  <defs></defs>
  <path d="M 691.614 699.438 C 695.424 695.495 698.01 689.767 698.1 683.8 L 698.1 340 C 698.01 334.033 695.449 328.33 691.638 324.386 C 687.695 320.576 681.967 317.99 676 317.9 L 587.6 317.9 C 581.633 317.99 575.93 320.551 571.986 324.362 C 568.176 328.305 565.59 334.033 565.5 340 L 565.5 683.8 C 565.59 689.767 568.151 695.47 571.962 699.414 C 575.905 703.224 581.633 705.81 587.6 705.9 L 676 705.9 C 681.967 705.81 687.67 703.249 691.614 699.438 Z M 453.814 699.438 C 457.625 695.495 460.21 689.767 460.3 683.8 L 460.3 340 C 460.21 334.033 457.649 328.33 453.838 324.386 C 449.895 320.576 444.167 317.99 438.2 317.9 L 349.8 317.9 C 343.833 317.99 338.13 320.551 334.186 324.362 C 330.376 328.305 327.79 334.033 327.7 340 L 327.7 683.8 C 327.79 689.767 330.351 695.47 334.162 699.414 C 338.105 703.224 343.833 705.81 349.8 705.9 L 438.2 705.9 C 444.167 705.81 449.87 703.249 453.814 699.438 Z" p-id="10106" data-spm-anchor-id="a313x.7781069.0.i9" class="selected" fill="#fff"></path>
  <path d="M512 64.4C264.8 64.4 64.4 264.8 64.4 512S264.8 959.6 512 959.6 959.6 759.2 959.6 512 759.2 64.4 512 64.4z m-54.6 619.5c0 11.1-9 20.1-20.1 20.1h-88.4c-11.1 0-20.1-9-20.1-20.1V340.1c0-11.1 9-20.1 20.1-20.1h88.4c11.1 0 20.1 9 20.1 20.1v343.8z m237.8 0c0 11.1-9 20.1-20.1 20.1h-88.4c-11.1 0-20.1-9-20.1-20.1V340.1c0-11.1 9-20.1 20.1-20.1h88.4c11.1 0 20.1 9 20.1 20.1v343.8z" p-id="10106" data-spm-anchor-id="a313x.7781069.0.i9" class="selected" style=""></path>
</svg>