<svg t="1591033882002" class="icon" viewBox="0 0 1024 1024" version="1.1" p-id="10231" data-spm-anchor-id="a313x.7781069.0.i15" width="1024" height="1024" xmlns="http://www.w3.org/2000/svg" xmlns:bx="https://boxy-svg.com">
  <defs></defs>
  <path d="M 645.17 561.218 L 448.638 692.239 C 438.445 698.8 427.581 701.418 416.669 701.418 C 398.921 701.418 380.141 691.62 368.832 676.456 C 364.247 670.424 361.726 663.021 360.57 655.442 C 351.305 610.044 347.181 562.556 347.181 514.17 C 347.181 464.706 352.437 414.693 361.687 366.325 C 365.158 352.094 373.567 339.086 385.552 330.077 C 398.104 321.415 413.598 318.811 427.828 320.849 C 435.885 322.153 443.329 325.768 449.793 330.048 L 646.433 466.26 C 659.071 475.395 667.448 489.719 670.02 503.762 C 672.134 517.907 668.588 534.236 659.922 546.625 C 655.805 551.767 650.958 557.497 645.17 561.218 Z" p-id="10232" data-spm-anchor-id="a313x.7781069.0.i16" class="selected" fill="#fff" bx:origin="0.5 0.519"></path>
  <path d="M512 51.2C258.048 51.2 51.2 258.048 51.2 512S258.048 972.8 512 972.8 972.8 765.952 972.8 512 765.952 51.2 512 51.2z m143.36 492.544c-4.096 5.12-8.192 10.24-13.312 13.312L445.44 688.128c-9.216 6.144-18.432 8.192-28.672 8.192-16.384 0-32.768-8.192-43.008-22.528-4.096-5.12-6.144-11.264-7.168-18.432-9.216-45.056-13.312-92.16-13.312-140.288 0-49.152 5.12-98.304 14.336-146.432 3.072-13.312 10.24-24.576 21.504-32.768s24.576-10.24 37.888-8.192c7.168 1.024 13.312 4.096 19.456 8.192l196.608 136.192c23.552 16.384 28.672 49.152 12.288 71.68z" p-id="10232" data-spm-anchor-id="a313x.7781069.0.i16" class="selected"></path>
</svg>