<svg t="1591033882002" class="icon" viewBox="0 0 1024 1024" version="1.1" p-id="10231" data-spm-anchor-id="a313x.7781069.0.i15" width="1024" height="1024" xmlns="http://www.w3.org/2000/svg" xmlns:bx="https://boxy-svg.com">
  <path d="M 645.17 561.218 L 448.638 692.239 C 438.445 698.8 427.581 701.418 416.669 701.418 C 398.921 701.418 380.141 691.62 368.832 676.456 C 364.247 670.424 361.726 663.021 360.57 655.442 C 351.305 610.044 347.181 562.556 347.181 514.17 C 347.181 464.706 352.437 414.693 361.687 366.325 C 365.158 352.094 373.567 339.086 385.552 330.077 C 398.104 321.415 413.598 318.811 427.828 320.849 C 435.885 322.153 443.329 325.768 449.793 330.048 L 646.433 466.26 C 659.071 475.395 667.448 489.719 670.02 503.762 C 672.134 517.907 668.588 534.236 659.922 546.625 C 655.805 551.767 650.958 557.497 645.17 561.218 Z" p-id="10232" data-spm-anchor-id="a313x.7781069.0.i16" class="selected" fill="#fff" bx:origin="0.5 0.519"></path>
  <path d="M 512 52 C 258.489 52 52 258.489 52 512 C 52 765.511 258.489 972 512 972 C 765.511 972 972 765.511 972 512 C 972 258.489 765.511 52 512 52 Z M 655.111 543.689 C 651.022 548.8 646.933 553.911 641.822 556.978 L 445.556 687.822 C 436.356 693.956 427.156 696 416.933 696 C 400.578 696 384.222 687.822 374 673.511 C 369.911 668.4 367.867 662.267 366.844 655.111 C 357.644 610.133 353.556 563.111 353.556 515.067 C 353.556 466 358.667 416.933 367.867 368.889 C 370.933 355.6 378.089 344.356 389.333 336.178 C 400.578 328 413.867 325.956 427.156 328 C 434.311 329.022 440.444 332.089 446.578 336.178 L 642.844 472.133 C 666.356 488.489 671.467 521.2 655.111 543.689 Z" p-id="10232" data-spm-anchor-id="a313x.7781069.0.i16" class="selected" style=""></path>
</svg>