<?xml version="1.0" standalone="no"?><!DOCTYPE svg PUBLIC "-//W3C//DTD SVG 1.1//EN" "http://www.w3.org/Graphics/SVG/1.1/DTD/svg11.dtd">
<svg t="1586595532286" class="icon" viewBox="0 0 1024 1024" version="1.1" 
  xmlns="http://www.w3.org/2000/svg" p-id="6988" data-spm-anchor-id="a313x.7781069.0.i7" 
  xmlns:xlink="http://www.w3.org/1999/xlink" width="200" height="200">
  <defs>
    <style type="text/css"></style>
  </defs>
  <path d="M740.144 325.536l-31.456-31.456a16 16 0 0 1-4.688-11.312v-28.304a14.464 14.464 0 0 1 24.688-10.24l97.824 97.824a11.136 11.136 0 0 1 0 15.744l-97.824 97.808a14.464 14.464 0 0 1-24.688-10.24v-28.288a16 16 0 0 1 4.688-11.312l32.224-32.224h-42.464c-91.2 0-162.864 78.304-162.56 184 2.4 133.68-89.68 232-210.4 232H224a16 16 0 0 1-16-16v-16a16 16 0 0 1 16-16h101.504c93.328 0 164.32-75.808 162.384-183.504v-0.432c-0.368-131.328 91.84-232.064 210.56-232.064h41.696z m-41.696 416H768a16 16 0 0 1 16 16v16a16 16 0 0 1-16 16h-69.552c-47.376 0-90.56-16.064-125.28-43.696a13.296 13.296 0 0 1 2.096-22.192l19.68-10.304a16 16 0 0 1 16.592 1.072c3.232 2.256 5.92 4.032 8.048 5.312a151.84 151.84 0 0 0 78.88 21.808z m-288.16-343.744a132.4 132.4 0 0 0-7.936-4.832c-22.672-12.56-48.752-19.424-76.848-19.424H224a16 16 0 0 1-16-16v-16a16 16 0 0 1 16-16h101.504c41.44 0 79.52 11.584 111.568 32.24 0.96 0.608 2 1.312 3.136 2.08a16 16 0 0 1 1.856 24.864l-12.112 11.36a16 16 0 0 1-19.68 1.712z" p-id="6989" data-spm-anchor-id="a313x.7781069.0.i5" class="" fill="#433d3f"></path>
</svg>