<?xml version="1.0" standalone="no"?><!DOCTYPE svg PUBLIC "-//W3C//DTD SVG 1.1//EN" "http://www.w3.org/Graphics/SVG/1.1/DTD/svg11.dtd">
<svg t="1586028482103" class="icon" viewBox="0 0 1024 1024" version="1.1" 
  xmlns="http://www.w3.org/2000/svg" p-id="1329" 
  xmlns:xlink="http://www.w3.org/1999/xlink" width="200" height="200">
  <defs>
    <style type="text/css"></style>
  </defs>
  <path d="M338.3 802H229c-0.4 0-0.7-0.3-0.7-0.7V566.8c0-1.2 1-2.2 2.2-2.2h106.4c1.2 0 2.2 1 2.2 2.2v234.5c-0.1 0.4-0.4 0.7-0.8 0.7zM592.7 823.3H481.9V398.1c0-1.2 1-2.2 2.2-2.2h106.4c1.2 0 2.2 1 2.2 2.2v425.2zM846.4 823.3H735.6V493.1c0-1.2 1-2.2 2.2-2.2h106.4c1.2 0 2.2 1 2.2 2.2v330.2z" fill="currentColor" p-id="1330"></path>
  <path d="M316 844.7H200.6c-24.5 0-44.4-19.9-44.4-44.4V546.6c0-49.9 40.6-90.5 90.5-90.5h23.1c49.9 0 90.5 40.6 90.5 90.5v253.7c0.1 24.5-19.8 44.4-44.3 44.4z m-69.2-346c-26.4 0-47.9 21.5-47.9 47.9v253.7c0 1 0.8 1.7 1.7 1.7H316c1 0 1.7-0.8 1.7-1.7V546.6c0-26.4-21.5-47.9-47.9-47.9h-23zM592.7 844.7H431.3c-11.8 0-21.3-9.5-21.3-21.3V269.8c0-49.9 40.6-90.5 90.5-90.5h23.1c49.9 0 90.5 40.6 90.5 90.5v553.5c0 11.8-9.6 21.4-21.4 21.4zM452.6 802h118.8V269.8c0-26.4-21.5-47.9-47.9-47.9h-23.1c-26.4 0-47.9 21.5-47.9 47.9V802zM846.4 844.7H685c-11.8 0-21.3-9.5-21.3-21.3V408.2c0-49.9 40.6-90.5 90.5-90.5h23.1c49.9 0 90.5 40.6 90.5 90.5v415.1c0 11.8-9.6 21.4-21.4 21.4zM706.3 802h118.8V408.2c0-26.4-21.5-47.9-47.9-47.9h-23.1c-26.4 0-47.9 21.5-47.9 47.9V802z" fill="#111111" p-id="1331"></path>
  <path d="M938.7 844.7H85.3c-11.8 0-21.3-9.5-21.3-21.3s9.5-21.3 21.3-21.3h853.3c11.8 0 21.3 9.5 21.3 21.3 0.1 11.7-9.4 21.3-21.2 21.3z" fill="#111111" p-id="1332"></path>
</svg>