<svg class="icon" viewBox="0 0 1024 1024" width="16" height="16" xmlns="http://www.w3.org/2000/svg"><ellipse cx="531.109" cy="531.109" rx="430" ry="430" stroke="#000" fill="#fff"/><path d="M344.178 661.333h335.644V281.6H344.178v379.733zm122.31-265.955c0-2.845 1.423-4.267 4.268-4.267h88.177c2.845 0 4.267 1.422 4.267 4.267v4.266h-96.711v-4.266zm0 11.378H563.2v8.533h-96.711v-8.533zm-39.821 99.555h39.822v-85.333H563.2v85.333h35.556c4.266 0 7.11 5.689 4.266 8.533l-85.333 85.334c-1.422 1.422-5.689 1.422-7.111 0l-85.334-85.334c-5.688-2.844-2.844-8.533 1.423-8.533zM479.28900000000004 735.289a34.133 34.133 0 1 0 68.267 0 34.133 34.133 0 1 0-68.267 0z" fill="#FFC233"/><path d="M512 0C228.978 0 0 228.978 0 512s228.978 512 512 512 512-228.978 512-512S795.022 0 512 0zm200.533 752.356c0 29.866-24.177 52.622-52.622 52.622H364.09c-29.867 0-52.622-24.178-52.622-52.622V300.089c0-29.867 24.177-52.622 52.622-52.622H659.91c29.867 0 52.622 24.177 52.622 52.622v452.267z" fill="#FFC233"/></svg>