<?xml version="1.0" standalone="no"?><!DOCTYPE svg PUBLIC "-//W3C//DTD SVG 1.1//EN" "http://www.w3.org/Graphics/SVG/1.1/DTD/svg11.dtd">
<svg t="1586028472233" class="icon" viewBox="0 0 1024 1024" version="1.1" 
  xmlns="http://www.w3.org/2000/svg" p-id="956" 
  xmlns:xlink="http://www.w3.org/1999/xlink" width="200" height="200">
  <defs>
    <style type="text/css"></style>
  </defs>
  <path d="M979.2 971.2L752 734.4c-68.8 75.2-168 116.8-268.8 120-214.4 3.2-392-177.6-392-398.4 0-217.6 174.4-395.2 385.6-395.2s385.6 177.6 385.6 398.4c0 68.8-19.2 139.2-51.2 198.4-6.4 9.6-3.2 22.4 3.2 32 12.8 12.8 32 9.6 41.6-6.4 38.4-65.6 60.8-142.4 60.8-227.2C916.8 206.4 720 3.2 480 3.2 233.6 6.4 38.4 209.6 38.4 459.2s195.2 451.2 435.2 451.2c97.6 0 195.2-35.2 272-97.6l192 198.4c9.6 9.6 25.6 9.6 38.4 0 12.8-12.8 12.8-27.2 3.2-40z m-761.6-544c16-126.4 113.6-227.2 240-236.8 12.8 0 25.6-12.8 25.6-28.8s-12.8-28.8-25.6-28.8h-3.2c-148.8 12.8-268.8 132.8-288 284.8-3.2 16 9.6 28.8 22.4 32h3.2c12.8 0 22.4-9.6 25.6-22.4z" fill="#888888" p-id="957"></path>
</svg>