<svg class="icon" viewBox="0 0 1024 1024" width="200" height="200" xmlns="http://www.w3.org/2000/svg"><path d="M672.625 437.477c0-57.89-19.679-111.28-52.683-153.814 26.033 73.332-25.239 216.203-84.452 272.592-65.831 62.743-196.965 106.601-267.386 80.922 42.447 32.562 95.394 51.976 152.843 51.976 138.811-.087 251.678-112.954 251.678-251.676z" fill="currentColor"/><path d="M899.681 845.879L713.305 659.503c-10.324-10.325-27.003-10.325-37.328 0-10.324 10.324-10.324 27.003 0 37.327l186.376 186.377c5.119 5.118 11.913 7.765 18.621 7.765 6.794 0 13.502-2.559 18.619-7.765 10.413-10.325 10.413-27.004.088-37.328zM420.947 133.027c-33.975 0-67.332 5.56-99.101 16.502-13.766 4.766-21.09 19.768-16.326 33.534 4.766 13.766 19.767 21.091 33.535 16.325 26.297-9.089 53.829-13.678 81.981-13.678 80.832 0 152.842 38.387 198.906 97.865 33.004 42.534 52.683 95.924 52.683 153.813 0 138.723-112.867 251.678-251.678 251.678-57.449 0-110.484-19.415-152.843-51.977-60.007-45.977-98.747-118.338-98.747-199.612 0-48.624 13.854-95.749 40.064-136.341 7.942-12.267 4.412-28.592-7.854-36.445-12.266-7.943-28.592-4.412-36.445 7.853-31.769 49.152-48.536 106.16-48.536 164.933 0 167.843 136.516 304.36 304.361 304.36 167.843 0 304.361-136.517 304.361-304.36 0-167.846-136.518-304.45-304.361-304.45z" fill="#353032"/><path d="M240.131 252.689a26.23 26.23 0 0 0 17.118-6.355c4.413-3.706 8.914-7.411 13.591-10.853 11.648-8.737 14.12-25.239 5.383-36.887-8.736-11.736-25.239-14.12-36.887-5.383-5.648 4.235-11.119 8.647-16.413 13.149-11.031 9.442-12.355 26.12-2.825 37.151 5.208 6 12.62 9.178 20.033 9.178z" fill="#353032"/></svg>