<svg class="icon" viewBox="0 0 1024 1024" width="200" height="200" xmlns="http://www.w3.org/2000/svg"><path d="M523.215 413.306c54.864 0 99.379 44.603 99.379 99.552 0 54.951-44.515 99.554-99.379 99.554-54.862 0-99.378-44.603-99.378-99.554-.086-54.949 44.429-99.552 99.378-99.552z" fill="currentColor"/><path d="M625.29 883.942c-12.955 0-25.214-5.39-33.822-14.78-20.954-22.345-49.211-34.605-79.468-34.605-30.431 0-58.688 12.346-79.555 34.778l-.087.087c-12.346 13.129-31.475 17.824-48.69 11.999-.087 0-.087 0-.174-.087-46.863-16.346-89.64-41.039-127.027-73.382l-.174-.174c-13.65-11.998-19.041-30.952-13.824-48.168 8.956-29.387 5.477-60.079-9.652-86.424-15.302-26.344-40.168-44.69-70.078-51.558-17.91-4.087-31.647-18.346-34.951-36.343-4.695-24.433-7.043-49.125-7.043-73.208 0-24.085 2.348-48.777 7.043-73.382v-.088c3.477-17.65 17.128-31.909 34.778-36.169.087 0 .173 0 .26-.087 29.823-6.782 54.689-25.128 69.905-51.645 15.215-26.432 18.694-57.037 9.738-86.25-5.391-17.303 0-36.257 13.738-48.256 37.299-32.343 80.076-57.123 127.114-73.555.087 0 .087 0 .173-.087 17.302-5.913 36.518-1.131 48.864 12.172 20.954 22.432 49.211 34.778 79.555 34.778 30.344 0 58.601-12.346 79.469-34.691 8.607-9.303 20.953-14.694 33.735-14.694 5.303 0 10.432.869 15.215 2.609 46.776 16.258 89.554 40.951 126.94 73.295 13.911 11.998 19.389 31.039 13.999 48.516-8.956 29.213-5.565 59.905 9.737 86.249 15.302 26.345 40.169 44.69 70.078 51.559 17.998 4.087 31.735 18.346 35.039 36.43 4.609 24.78 7.043 49.386 7.13 73.121v.088c0 24.17-2.348 48.776-7.043 73.295-3.477 17.91-17.128 32.169-34.865 36.256-30.083 6.868-54.95 25.127-70.165 51.558-2.435 4.174-3.478 7.825-2.87 9.826.87 2.521 4.782 4.782 4.782 4.782 10.609 4.52 15.477 16.78 10.956 27.387-4.521 10.608-16.781 15.477-27.388 10.955-2.174-.956-21.215-9.564-27.996-29.996-3.13-9.564-4.609-24.866 6.346-43.821 21.042-36.517 55.472-61.818 96.858-71.295 1.652-.347 2.956-1.739 3.304-3.478 4.174-21.823 6.26-43.82 6.347-65.296-.087-21.215-2.261-43.299-6.434-65.644-.348-1.651-1.652-2.956-3.39-3.39-41.3-9.478-75.643-34.779-96.858-71.296-21.128-36.517-25.91-78.947-13.476-119.463.521-1.652 0-3.478-1.305-4.521l-.087-.087c-33.473-28.953-71.643-51.037-113.464-65.557-.087 0-.174-.087-.347-.087-.348-.087-.783-.174-1.131-.174a4.206 4.206 0 0 0-3.13 1.391c-28.953 30.953-67.991 47.994-109.986 47.994-42.082 0-81.121-17.041-110.073-48.081-1.13-1.217-3.217-1.651-4.869-1.13-41.995 14.693-80.164 36.778-113.377 65.644-1.305 1.13-1.826 2.782-1.305 4.26 0 .087 0 .087.088.174 12.433 40.43 7.651 82.859-13.477 119.463-21.127 36.605-55.384 61.906-96.597 71.383-1.826.435-3.216 1.826-3.564 3.564-4.174 21.997-6.348 43.995-6.348 65.471 0 21.562 2.088 43.559 6.348 65.469v.174c.26 1.565 1.652 2.956 3.304 3.304 41.212 9.478 75.643 34.779 96.857 71.295 21.041 36.517 25.823 78.86 13.477 119.463-.522 1.566.087 3.391 1.39 4.695 33.388 28.78 71.471 50.864 113.29 65.471 1.913.608 3.826-.087 4.783-1.131 28.866-30.953 67.904-48.081 110.073-48.081 41.995 0 81.12 17.042 110.073 47.907l.261.262c.695.695 1.825 1.216 3.043 1.216.435 0 .87 0 1.652-.26 41.821-14.607 79.989-36.692 113.377-65.557 8.695-7.564 21.911-6.608 29.474 2.173 7.564 8.695 6.608 21.91-2.173 29.475-37.474 32.343-80.163 57.036-127.028 73.382-.086 0-.173.087-.26.087-4.956 1.739-9.999 2.521-15.042 2.521z" fill="#353032"/><path d="M512 670.23c-87.206 0-158.067-70.947-158.067-158.067 0-87.206 70.948-158.067 158.067-158.067 87.206 0 158.067 70.948 158.067 158.067 0 29.823-8.347 58.863-24.084 83.902-6.086 9.739-19.041 12.695-28.779 6.608-9.738-6.086-12.694-19.041-6.608-28.778a116.15 116.15 0 0 0 17.737-61.732c0-64.166-52.167-116.332-116.333-116.332s-116.333 52.166-116.333 116.332S447.834 628.496 512 628.496c13.911 0 27.562-2.434 40.43-7.216 10.781-3.999 22.78 1.478 26.779 12.346 4 10.782-1.478 22.78-12.347 26.779-17.476 6.521-35.908 9.825-54.862 9.825z" fill="#353032"/></svg>