<?xml version="1.0" standalone="no"?>
<!DOCTYPE svg PUBLIC "-//W3C//DTD SVG 1.1//EN" "http://www.w3.org/Graphics/SVG/1.1/DTD/svg11.dtd">
<svg t="1587150233656" class="icon" viewBox="0 0 1024 1024" version="1.1" xmlns="http://www.w3.org/2000/svg" p-id="18682" data-spm-anchor-id="a313x.7781069.0.i10" xmlns:xlink="http://www.w3.org/1999/xlink" width="1024" height="1024">
    <defs>
        <style type="text/css"/>
    </defs>
    <path d="M523.1 397.4c63.1 0 114.3 51.3 114.3 114.5s-51.2 114.5-114.3 114.5-114.3-51.3-114.3-114.5c-0.1-63.2 51.1-114.5 114.3-114.5z" fill="currentColor" p-id="18683" data-spm-anchor-id="a313x.7781069.0.i9" class=""/>
    <path d="M640.5 938.7c-14.9 0-29-6.2-38.9-17-24.1-25.7-56.6-39.8-91.4-39.8-35 0-67.5 14.2-91.5 40l-0.1 0.1c-14.2 15.1-36.2 20.5-56 13.8-0.1 0-0.1 0-0.2-0.1-53.9-18.8-103.1-47.2-146.1-84.4l-0.2-0.2c-15.7-13.8-21.9-35.6-15.9-55.4 10.3-33.8 6.3-69.1-11.1-99.4-17.6-30.3-46.2-51.4-80.6-59.3-20.6-4.7-36.4-21.1-40.2-41.8-5.4-28.1-8.1-56.5-8.1-84.2 0-27.7 2.7-56.1 8.1-84.4v-0.1c4-20.3 19.7-36.7 40-41.6 0.1 0 0.2 0 0.3-0.1 34.3-7.8 62.9-28.9 80.4-59.4 17.5-30.4 21.5-65.6 11.2-99.2-6.2-19.9 0-41.7 15.8-55.5 42.9-37.2 92.1-65.7 146.2-84.6 0.1 0 0.1 0 0.2-0.1 19.9-6.8 42-1.3 56.2 14 24.1 25.8 56.6 40 91.5 40s67.4-14.2 91.4-39.9c9.9-10.7 24.1-16.9 38.8-16.9 6.1 0 12 1 17.5 3 53.8 18.7 103 47.1 146 84.3 16 13.8 22.3 35.7 16.1 55.8-10.3 33.6-6.4 68.9 11.2 99.2 17.6 30.3 46.2 51.4 80.6 59.3 20.7 4.7 36.5 21.1 40.3 41.9 5.3 28.5 8.1 56.8 8.2 84.1v0.1c0 27.8-2.7 56.1-8.1 84.3-4 20.6-19.7 37-40.1 41.7-34.6 7.9-63.2 28.9-80.7 59.3-2.8 4.8-4 9-3.3 11.3 1 2.9 5.5 5.5 5.5 5.5 12.2 5.2 17.8 19.3 12.6 31.5-5.2 12.2-19.3 17.8-31.5 12.6-2.5-1.1-24.4-11-32.2-34.5-3.6-11-5.3-28.6 7.3-50.4 24.2-42 63.8-71.1 111.4-82 1.9-0.4 3.4-2 3.8-4 4.8-25.1 7.2-50.4 7.3-75.1-0.1-24.4-2.6-49.8-7.4-75.5-0.4-1.9-1.9-3.4-3.9-3.9-47.5-10.9-87-40-111.4-82-24.3-42-29.8-90.8-15.5-137.4 0.6-1.9 0-4-1.5-5.2l-0.1-0.1c-38.5-33.3-82.4-58.7-130.5-75.4-0.1 0-0.2-0.1-0.4-0.1-0.4-0.1-0.9-0.2-1.3-0.2-1.4 0-2.7 0.6-3.6 1.6-33.3 35.6-78.2 55.2-126.5 55.2-48.4 0-93.3-19.6-126.6-55.3-1.3-1.4-3.7-1.9-5.6-1.3-48.3 16.9-92.2 42.3-130.4 75.5-1.5 1.3-2.1 3.2-1.5 4.9 0 0.1 0 0.1 0.1 0.2 14.3 46.5 8.8 95.3-15.5 137.4-24.3 42.1-63.7 71.2-111.1 82.1-2.1 0.5-3.7 2.1-4.1 4.1-4.8 25.3-7.3 50.6-7.3 75.3 0 24.8 2.4 50.1 7.3 75.3v0.2c0.3 1.8 1.9 3.4 3.8 3.8 47.4 10.9 87 40 111.4 82 24.2 42 29.7 90.7 15.5 137.4-0.6 1.8 0.1 3.9 1.6 5.4 38.4 33.1 82.2 58.5 130.3 75.3 2.2 0.7 4.4-0.1 5.5-1.3 33.2-35.6 78.1-55.3 126.6-55.3 48.3 0 93.3 19.6 126.6 55.1l0.3 0.3c0.8 0.8 2.1 1.4 3.5 1.4 0.5 0 1 0 1.9-0.3 48.1-16.8 92-42.2 130.4-75.4 10-8.7 25.2-7.6 33.9 2.5 8.7 10 7.6 25.2-2.5 33.9-43.1 37.2-92.2 65.6-146.1 84.4-0.1 0-0.2 0.1-0.3 0.1-5.7 2-11.5 2.9-17.3 2.9z" fill="#353032" p-id="18684" data-spm-anchor-id="a313x.7781069.0.i4" class=""/>
    <path d="M510.2 692.9c-100.3 0-181.8-81.6-181.8-181.8 0-100.3 81.6-181.8 181.8-181.8 100.3 0 181.8 81.6 181.8 181.8 0 34.3-9.6 67.7-27.7 96.5-7 11.2-21.9 14.6-33.1 7.6-11.2-7-14.6-21.9-7.6-33.1 13.3-21.2 20.4-45.8 20.4-71 0-73.8-60-133.8-133.8-133.8-73.8 0-133.8 60-133.8 133.8 0 73.8 60 133.8 133.8 133.8 16 0 31.7-2.8 46.5-8.3 12.4-4.6 26.2 1.7 30.8 14.2 4.6 12.4-1.7 26.2-14.2 30.8-20.1 7.5-41.3 11.3-63.1 11.3z" p-id="18685" data-spm-anchor-id="a313x.7781069.0.i7" class="" fill="#353032"/>
</svg>
