<svg t="1590920075131" class="icon" viewBox="0 0 1024 1024" version="1.1" xmlns="http://www.w3.org/2000/svg" p-id="12862" width="1024" height="1024"><path d="M853.32992 273.05984C853.32992 178.80064 776.92928 102.4 682.67008 102.4 588.40064 102.4 512 178.80064 512 273.05984v102.4c-147.67104 0-279.6032-67.06176-367.26784-172.25728-88.86272 195.20512-33.19808 429.19936 139.5712 562.56512-48.30208 43.30496-111.9744 69.8368-181.90336 69.8368C179.83488 889.66144 273.8688 921.6 375.47008 921.6c263.95648 0 477.85984-213.99552 477.85984-477.87008v-102.4L921.6 273.05984h-68.27008zM699.6992 307.2a34.12992 34.12992 0 1 1 0.06144-68.25984A34.12992 34.12992 0 0 1 699.6992 307.2z" p-id="12863" fill="currentColor"></path></svg>