<?xml version="1.0" standalone="no"?><!DOCTYPE svg PUBLIC "-//W3C//DTD SVG 1.1//EN" "http://www.w3.org/Graphics/SVG/1.1/DTD/svg11.dtd"><svg t="1586602539502" class="icon" viewBox="0 0 1024 1024" version="1.1" xmlns="http://www.w3.org/2000/svg" p-id="7703" xmlns:xlink="http://www.w3.org/1999/xlink" width="200" height="200"><defs><style type="text/css"></style></defs><path d="M987.52 367.36c-108.16-146.56-266.88-239.36-444.16-239.36-177.28 0-335.36 92.8-444.16 239.36-48 64.64-48 160.64 0 225.28C208 739.2 366.72 832 543.36 832c177.28 0 335.36-92.8 444.16-239.36C1035.52 528 1035.52 432 987.52 367.36zM544 704C420.48 704 320 603.52 320 480S420.48 256 544 256C667.52 256 768 356.48 768 480S667.52 704 544 704zM544 320C455.68 320 384 391.68 384 480S455.68 640 544 640C632.32 640 704 568.32 704 480S632.32 320 544 320z" p-id="7704"></path></svg>