<?xml version="1.0" standalone="no"?>
<!DOCTYPE svg PUBLIC "-//W3C//DTD SVG 1.1//EN" "http://www.w3.org/Graphics/SVG/1.1/DTD/svg11.dtd">
<svg t="1587134509072" class="icon" viewBox="0 0 1024 1024" version="1.1" xmlns="http://www.w3.org/2000/svg" p-id="8516" xmlns:xlink="http://www.w3.org/1999/xlink" width="1024" height="1024">
    <defs>
        <style type="text/css"/>
    </defs>
    <path d="M512 512m-512 0a512 512 0 1 0 1024 0 512 512 0 1 0-1024 0Z" fill="#adadad" p-id="8517"/>
    <path d="M292.571429 789.942857c-14.628571 0-21.942857-7.314286-29.257143-14.628571-14.628571-14.628571-14.628571-43.885714 0-58.514286l453.485714-453.485714c14.628571-14.628571 43.885714-14.628571 58.514286 0s14.628571 43.885714 0 58.514285l-453.485715 453.485715c-7.314286 7.314286-21.942857 14.628571-29.257142 14.628571z" fill="#FFFFFF" p-id="8518"/>
    <path d="M746.057143 789.942857c-14.628571 0-21.942857-7.314286-29.257143-14.628571L256 321.828571c-14.628571-14.628571-14.628571-43.885714 0-58.514285 14.628571-14.628571 43.885714-14.628571 58.514286 0l453.485714 453.485714c14.628571 14.628571 14.628571 43.885714 0 58.514286 0 7.314286-14.628571 14.628571-21.942857 14.628571z" fill="#FFFFFF" p-id="8519"/>
</svg>
